<svg
	xmlns="http://www.w3.org/2000/svg"
	version="1.0"
	width="100%"
	height="100%"
	viewBox="0 0 2004.000000 2004.000000"
	preserveAspectRatio="xMidYMid meet"
>
	<g transform="translate(0.000000,2004.000000) scale(0.100000,-0.100000)" fill="currentColor">
		<path
			d="M3913 20013 c-77 -2 -133 -8 -133 -13 0 -6 -37 -10 -85 -10 -50 0 -85 -4 -85 -10 0 -6 -28 -10 -65 -10 -37 0 -65 -4 -65 -10 0 -5 -25 -10 -55 -10 -30 0 -55 -4 -55 -10 0 -5 -20 -10 -45 -10 -32 0 -45 -4 -45 -14 0 -11 -9 -13 -33 -9 -23 3 -39 0 -50 -11 -8 -9 -32 -16 -51 -16 -20 0 -36 -4 -36 -10 0 -5 -20 -10 -45 -10 -25 0 -45 -4 -45 -10 0 -5 -16 -10 -35 -10 -19 0 -35 -4 -35 -10 0 -5 -13 -10 -30 -10 -16 0 -30 -4 -30 -10 0 -5 -14 -10 -30 -10 -18 0 -33 -6 -36 -15 -4 -9 -19 -15 -35 -15 -16 0 -29 -4 -29 -10 0 -5 -11 -10 -25 -10 -14 0 -25 -4 -25 -10 0 -5 -13 -10 -30 -10 -16 0 -30 -4 -30 -10 0 -5 -9 -10 -20 -10 -11 0 -20 -4 -20 -10 0 -5 -16 -10 -35 -10 -24 0 -35 -5 -35 -15 0 -8 -9 -15 -19 -15 -11 0 -23 -4 -26 -10 -3 -5 -15 -10 -26 -10 -10 0 -19 -4 -19 -10 0 -5 -9 -10 -20 -10 -11 0 -20 -4 -20 -10 0 -5 -11 -10 -25 -10 -14 0 -25 -4 -25 -10 0 -5 -9 -10 -20 -10 -11 0 -20 -6 -20 -14 0 -9 -7 -12 -20 -9 -14 4 -20 0 -20 -11 0 -10 -9 -16 -25 -16 -14 0 -25 -4 -25 -10 0 -5 -9 -10 -20 -10 -11 0 -20 -4 -20 -10 0 -5 -9 -10 -20 -10 -11 0 -20 -4 -20 -10 0 -5 -7 -10 -15 -10 -8 0 -15 -4 -15 -10 0 -5 -9 -10 -20 -10 -11 0 -20 -7 -20 -15 0 -8 -9 -15 -20 -15 -11 0 -20 -4 -20 -10 0 -5 -10 -10 -23 -10 -12 0 -29 -9 -37 -20 -8 -11 -21 -20 -30 -20 -8 0 -21 -9 -28 -20 -7 -11 -21 -20 -31 -20 -10 0 -27 -11 -37 -25 -10 -14 -27 -25 -36 -25 -10 0 -18 -4 -18 -10 0 -5 -7 -10 -16 -10 -8 0 -12 -4 -9 -10 3 -5 -1 -10 -9 -10 -9 0 -16 -4 -16 -10 0 -5 -9 -10 -20 -10 -11 0 -20 -5 -20 -11 0 -16 -27 -39 -47 -39 -10 0 -35 -21 -57 -45 -21 -24 -43 -42 -47 -39 -5 3 -40 -27 -77 -65 -38 -39 -73 -71 -80 -71 -15 0 -302 -287 -302 -302 0 -7 -32 -42 -71 -80 -38 -37 -68 -72 -65 -77 3 -4 -15 -26 -39 -47 -24 -22 -45 -47 -45 -57 0 -19 -43 -67 -60 -67 -5 0 -10 -9 -10 -20 0 -11 -4 -20 -10 -20 -5 0 -10 -7 -10 -15 0 -8 -4 -15 -10 -15 -5 0 -10 -8 -10 -18 0 -9 -11 -26 -25 -36 -14 -10 -25 -27 -25 -37 0 -10 -9 -24 -20 -31 -11 -7 -20 -20 -20 -28 0 -9 -9 -22 -20 -30 -11 -8 -20 -25 -20 -37 0 -13 -4 -23 -10 -23 -5 0 -10 -7 -10 -16 0 -18 -23 -44 -39 -44 -6 0 -11 -11 -11 -25 0 -14 -4 -25 -10 -25 -5 0 -10 -9 -10 -20 0 -11 -4 -20 -10 -20 -5 0 -10 -7 -10 -16 0 -9 -11 -27 -25 -40 -14 -13 -25 -30 -25 -39 0 -8 -4 -15 -10 -15 -5 0 -10 -9 -10 -20 0 -11 -4 -20 -10 -20 -5 0 -10 -11 -10 -25 0 -14 -4 -25 -10 -25 -5 0 -10 -13 -10 -30 0 -16 -4 -30 -10 -30 -5 0 -10 -9 -10 -19 0 -11 -5 -23 -10 -26 -6 -3 -10 -15 -10 -26 0 -10 -7 -19 -15 -19 -8 0 -15 -9 -15 -20 0 -11 -4 -20 -10 -20 -5 0 -10 -16 -10 -35 0 -19 -4 -35 -10 -35 -5 0 -10 -9 -10 -20 0 -11 -4 -20 -10 -20 -5 0 -10 -16 -10 -35 0 -19 -4 -35 -10 -35 -5 0 -10 -13 -10 -29 0 -16 -6 -31 -15 -35 -9 -3 -15 -18 -15 -36 0 -16 -4 -30 -10 -30 -5 0 -10 -13 -10 -30 0 -16 -4 -30 -10 -30 -5 0 -10 -16 -10 -35 0 -19 -4 -35 -10 -35 -5 0 -10 -13 -10 -29 0 -17 -5 -33 -10 -36 -6 -3 -10 -22 -10 -41 0 -20 -7 -43 -16 -51 -11 -11 -14 -27 -11 -50 4 -24 2 -33 -9 -33 -10 0 -14 -14 -14 -55 0 -30 -4 -55 -10 -55 -5 0 -10 -25 -10 -55 0 -30 -4 -55 -10 -55 -5 0 -10 -25 -10 -55 0 -30 -4 -55 -10 -55 -6 0 -10 -35 -10 -84 0 -59 -4 -86 -12 -88 -19 -7 -19 -1069 0 -1075 8 -3 12 -30 12 -89 0 -49 4 -84 10 -84 6 0 10 -28 10 -65 0 -37 4 -65 10 -65 6 0 10 -25 10 -55 0 -30 5 -55 10 -55 6 0 10 -20 10 -45 0 -32 4 -45 14 -45 11 0 13 -9 9 -33 -3 -23 0 -39 11 -50 9 -8 16 -32 16 -51 0 -20 5 -36 10 -36 6 0 10 -20 10 -45 0 -25 5 -45 10 -45 6 0 10 -16 10 -35 0 -19 5 -35 10 -35 6 0 10 -13 10 -29 0 -16 6 -31 14 -34 8 -3 12 -15 9 -31 -4 -18 0 -28 11 -32 10 -4 16 -18 16 -35 0 -16 5 -29 10 -29 6 0 10 -16 10 -35 0 -19 5 -35 10 -35 6 0 10 -16 10 -35 0 -19 5 -35 10 -35 6 0 10 -13 10 -30 0 -16 5 -30 10 -30 6 0 10 -9 10 -19 0 -10 7 -21 15 -25 9 -3 15 -18 15 -36 0 -16 5 -30 10 -30 6 0 10 -9 10 -20 0 -11 5 -20 10 -20 6 0 10 -16 10 -35 0 -19 5 -35 10 -35 6 0 10 -9 10 -20 0 -11 5 -20 10 -20 6 0 10 -16 10 -35 0 -19 5 -35 10 -35 6 0 10 -7 10 -15 0 -9 7 -18 15 -21 8 -4 15 -15 15 -25 0 -10 5 -19 10 -19 6 0 10 -11 10 -25 0 -14 5 -25 10 -25 6 0 10 -13 10 -30 0 -16 5 -30 10 -30 6 0 10 -11 10 -25 0 -14 5 -25 10 -25 6 0 10 -9 10 -20 0 -11 7 -20 15 -20 8 0 15 -9 15 -19 0 -11 5 -23 10 -26 5 -3 10 -19 10 -36 0 -16 5 -29 10 -29 6 0 10 -9 10 -20 0 -11 5 -20 10 -20 6 0 10 -11 10 -25 0 -14 5 -25 10 -25 6 0 10 -9 10 -19 0 -10 7 -21 15 -25 8 -3 12 -12 9 -19 -3 -8 2 -17 10 -20 9 -4 16 -16 16 -27 0 -11 5 -20 10 -20 6 0 10 -9 10 -20 0 -11 5 -20 10 -20 6 0 10 -11 10 -25 0 -14 5 -25 10 -25 6 0 10 -9 10 -20 0 -11 5 -20 10 -20 6 0 10 -9 10 -19 0 -10 7 -21 15 -25 9 -3 15 -18 15 -36 0 -16 5 -30 10 -30 6 0 10 -9 10 -20 0 -11 5 -20 10 -20 6 0 10 -11 10 -25 0 -14 5 -25 10 -25 6 0 10 -9 10 -20 0 -11 5 -20 10 -20 6 0 10 -9 10 -19 0 -10 7 -21 15 -25 8 -3 12 -12 9 -21 -4 -8 1 -17 10 -21 9 -3 16 -15 16 -25 0 -10 5 -19 10 -19 6 0 10 -11 10 -25 0 -14 5 -25 10 -25 6 0 10 -9 10 -20 0 -11 5 -20 10 -20 6 0 10 -9 10 -20 0 -11 5 -20 10 -20 6 0 10 -9 10 -19 0 -10 7 -21 15 -25 8 -3 15 -15 15 -26 0 -11 5 -20 10 -20 6 0 10 -9 10 -20 0 -11 5 -20 10 -20 6 0 10 -11 10 -25 0 -14 5 -25 10 -25 6 0 10 -9 10 -20 0 -11 5 -20 10 -20 6 0 10 -9 10 -19 0 -10 7 -21 15 -25 8 -3 12 -12 9 -21 -4 -8 1 -17 10 -21 9 -3 16 -15 16 -25 0 -10 5 -19 10 -19 6 0 10 -12 10 -26 0 -14 4 -23 10 -19 6 4 10 -5 10 -19 0 -14 5 -26 10 -26 6 0 10 -9 10 -20 0 -11 5 -20 10 -20 6 0 10 -9 10 -19 0 -10 7 -21 15 -25 8 -3 15 -15 15 -26 0 -11 5 -20 10 -20 6 0 10 -9 10 -20 0 -11 5 -20 10 -20 6 0 10 -11 10 -25 0 -14 5 -25 10 -25 6 0 10 -9 10 -20 0 -11 5 -20 10 -20 6 0 10 -9 10 -20 0 -11 4 -20 9 -20 5 0 12 -11 15 -25 4 -14 11 -25 16 -25 6 0 10 -9 10 -20 0 -11 5 -20 10 -20 6 0 10 -11 10 -25 0 -14 5 -25 10 -25 6 0 10 -9 10 -20 0 -11 5 -20 10 -20 6 0 10 -9 10 -19 0 -10 7 -21 15 -25 8 -3 12 -12 9 -21 -4 -8 1 -17 10 -21 9 -3 16 -15 16 -25 0 -10 5 -19 10 -19 6 0 10 -9 10 -20 0 -11 5 -20 10 -20 6 0 10 -11 10 -25 0 -14 5 -25 10 -25 6 0 10 -9 10 -20 0 -11 5 -20 10 -20 6 0 10 -9 10 -19 0 -10 7 -21 15 -25 8 -3 15 -15 15 -26 0 -11 5 -20 10 -20 6 0 10 -9 10 -20 0 -11 5 -20 10 -20 6 0 10 -12 10 -26 0 -14 4 -23 10 -19 6 4 10 -5 10 -19 0 -14 5 -26 10 -26 6 0 10 -9 10 -19 0 -10 7 -21 15 -25 8 -3 12 -12 9 -21 -4 -8 1 -17 10 -21 9 -3 16 -15 16 -25 0 -10 5 -19 10 -19 6 0 10 -9 10 -20 0 -11 5 -20 10 -20 6 0 10 -11 10 -25 0 -14 5 -25 10 -25 6 0 10 -9 10 -20 0 -11 5 -20 10 -20 6 0 10 -9 10 -19 0 -10 7 -21 15 -25 8 -3 15 -15 15 -26 0 -11 5 -20 10 -20 6 0 10 -9 10 -20 0 -11 5 -20 10 -20 6 0 10 -11 10 -25 0 -14 5 -25 10 -25 6 0 10 -9 10 -20 0 -11 5 -20 10 -20 6 0 10 -9 10 -20 0 -11 5 -20 10 -20 6 0 10 -9 10 -20 0 -11 7 -23 15 -26 8 -4 15 -15 15 -25 0 -10 5 -19 10 -19 6 0 10 -9 10 -20 0 -11 5 -20 10 -20 6 0 10 -11 10 -25 0 -14 5 -25 10 -25 6 0 10 -9 10 -20 0 -11 5 -20 10 -20 6 0 10 -9 10 -19 0 -10 7 -21 15 -25 8 -3 15 -15 15 -26 0 -11 5 -20 10 -20 6 0 10 -9 10 -20 0 -11 5 -20 10 -20 6 0 10 -11 10 -25 0 -14 5 -25 10 -25 6 0 10 -9 10 -20 0 -11 5 -20 10 -20 6 0 10 -9 10 -19 0 -10 7 -21 15 -25 8 -3 12 -12 9 -21 -4 -8 1 -17 10 -21 9 -3 16 -15 16 -25 0 -10 5 -19 10 -19 6 0 10 -11 10 -25 0 -14 5 -25 10 -25 6 0 10 -13 10 -30 0 -16 5 -30 10 -30 6 0 10 -9 10 -20 0 -11 5 -20 10 -20 6 0 10 -9 10 -20 0 -11 7 -23 15 -26 8 -4 15 -15 15 -25 0 -10 5 -19 10 -19 6 0 10 -9 10 -20 0 -11 5 -20 10 -20 6 0 10 -11 10 -25 0 -14 5 -25 10 -25 6 0 10 -9 10 -20 0 -11 5 -20 10 -20 6 0 10 -16 10 -35 0 -24 5 -35 15 -35 9 0 12 -6 9 -15 -4 -8 1 -17 10 -21 9 -3 16 -14 16 -24 0 -11 5 -22 10 -25 6 -3 10 -19 10 -36 0 -16 5 -29 10 -29 6 0 10 -16 10 -35 0 -19 5 -35 10 -35 6 0 10 -13 10 -30 0 -16 5 -30 10 -30 6 0 10 -18 10 -40 0 -27 5 -43 15 -46 11 -5 15 -21 15 -60 0 -30 5 -54 10 -54 13 0 13 -247 0 -255 -6 -3 -10 -23 -10 -45 0 -24 -5 -40 -15 -44 -9 -3 -15 -18 -15 -36 0 -16 -4 -30 -10 -30 -5 0 -10 -9 -10 -20 0 -11 -4 -20 -10 -20 -5 0 -10 -9 -10 -20 0 -11 -4 -20 -10 -20 -5 0 -10 -7 -10 -15 0 -8 -4 -15 -10 -15 -5 0 -10 -7 -10 -16 0 -18 -23 -44 -39 -44 -6 0 -11 -9 -11 -20 0 -25 -191 -220 -215 -220 -16 0 -45 -22 -45 -35 0 -12 -50 -55 -65 -55 -8 0 -15 -4 -15 -10 0 -5 -6 -10 -13 -10 -7 0 -19 -9 -27 -20 -8 -11 -22 -20 -32 -20 -10 0 -18 -5 -18 -11 0 -15 -51 -59 -68 -59 -8 0 -27 -13 -42 -30 -15 -16 -34 -30 -42 -30 -7 0 -27 -16 -43 -35 -17 -19 -36 -35 -43 -35 -7 0 -32 -20 -56 -45 -25 -25 -50 -45 -58 -45 -7 0 -20 -9 -28 -20 -8 -11 -19 -20 -25 -20 -6 0 -17 -9 -25 -20 -8 -11 -22 -20 -32 -20 -10 0 -18 -5 -18 -11 0 -11 -25 -39 -35 -39 -8 0 -55 -47 -55 -55 0 -13 -30 -36 -39 -31 -12 8 -351 -331 -351 -351 0 -14 -23 -43 -35 -43 -9 0 -55 -48 -55 -57 0 -5 -11 -17 -25 -27 -14 -11 -24 -25 -21 -33 3 -7 -1 -13 -10 -13 -8 0 -12 -4 -9 -10 3 -5 -1 -10 -9 -10 -9 0 -16 -7 -16 -16 0 -8 -4 -12 -10 -9 -6 3 -10 -4 -10 -17 0 -14 -14 -35 -35 -53 -19 -16 -35 -36 -35 -43 0 -8 -13 -27 -30 -42 -16 -15 -30 -34 -30 -40 0 -7 -12 -23 -26 -36 -14 -13 -23 -28 -19 -33 3 -5 -6 -18 -20 -29 -14 -11 -25 -30 -25 -42 0 -11 -5 -18 -10 -15 -6 3 -10 -4 -10 -17 0 -13 -9 -30 -20 -38 -11 -8 -20 -22 -20 -31 0 -9 -7 -19 -15 -23 -8 -3 -15 -14 -15 -23 0 -10 -9 -25 -20 -33 -11 -8 -20 -22 -20 -32 0 -10 -4 -18 -10 -18 -5 0 -10 -11 -10 -25 0 -14 -4 -25 -10 -25 -5 0 -10 -9 -10 -20 0 -11 -4 -20 -9 -20 -11 0 -41 -56 -41 -77 0 -7 -4 -13 -10 -13 -5 0 -10 -9 -10 -20 0 -11 -4 -20 -10 -20 -5 0 -10 -9 -10 -20 0 -11 -4 -20 -10 -20 -5 0 -10 -11 -10 -25 0 -14 -4 -25 -10 -25 -5 0 -10 -13 -10 -29 0 -16 -6 -31 -15 -35 -8 -3 -15 -15 -15 -26 0 -11 -4 -20 -10 -20 -5 0 -10 -9 -10 -20 0 -11 -4 -20 -10 -20 -5 0 -10 -16 -10 -35 0 -19 -4 -35 -10 -35 -5 0 -10 -13 -10 -30 0 -16 -4 -30 -10 -30 -5 0 -10 -9 -10 -20 0 -10 -7 -23 -16 -28 -12 -6 -15 -18 -12 -36 4 -18 1 -26 -8 -26 -9 0 -14 -12 -14 -35 0 -19 -4 -35 -10 -35 -5 0 -10 -18 -10 -40 0 -22 -4 -40 -10 -40 -5 0 -10 -16 -10 -35 0 -19 -4 -35 -10 -35 -5 0 -10 -20 -10 -44 0 -31 -5 -46 -16 -50 -11 -4 -15 -16 -12 -43 2 -22 -2 -38 -10 -41 -7 -2 -12 -21 -12 -43 0 -21 -4 -39 -10 -39 -5 0 -10 -25 -10 -55 0 -30 -4 -55 -10 -55 -6 0 -10 -28 -10 -65 0 -37 -4 -65 -10 -65 -6 0 -10 -36 -10 -89 0 -62 -4 -91 -12 -93 -18 -6 -18 -1000 0 -1006 8 -2 12 -31 12 -88 0 -49 4 -84 10 -84 6 0 10 -28 10 -65 0 -37 4 -65 10 -65 6 0 10 -25 10 -55 0 -30 5 -55 10 -55 6 0 10 -20 10 -45 0 -32 4 -45 14 -45 11 0 13 -9 9 -33 -3 -23 0 -39 11 -50 9 -8 16 -32 16 -51 0 -20 5 -36 10 -36 6 0 10 -20 10 -45 0 -25 5 -45 10 -45 6 0 10 -16 10 -35 0 -19 5 -35 10 -35 6 0 10 -13 10 -30 0 -16 5 -30 10 -30 6 0 10 -14 10 -30 0 -18 6 -33 15 -36 9 -4 15 -19 15 -35 0 -16 5 -29 10 -29 6 0 10 -11 10 -25 0 -14 5 -25 10 -25 6 0 10 -13 10 -30 0 -16 5 -30 10 -30 6 0 10 -9 10 -20 0 -11 5 -20 10 -20 6 0 10 -16 10 -35 0 -24 5 -35 15 -35 8 0 15 -9 15 -19 0 -11 5 -23 10 -26 6 -3 10 -15 10 -26 0 -10 5 -19 10 -19 6 0 10 -9 10 -20 0 -11 5 -20 10 -20 6 0 10 -11 10 -25 0 -14 5 -25 10 -25 6 0 10 -9 10 -20 0 -11 6 -20 14 -20 9 0 12 -7 9 -20 -4 -14 0 -20 11 -20 10 0 16 -9 16 -25 0 -14 5 -25 10 -25 6 0 10 -9 10 -20 0 -11 5 -20 10 -20 6 0 10 -9 10 -20 0 -11 5 -20 10 -20 6 0 10 -7 10 -15 0 -8 5 -15 10 -15 6 0 10 -9 10 -20 0 -11 7 -20 15 -20 8 0 15 -9 15 -20 0 -11 5 -20 10 -20 6 0 10 -10 10 -23 0 -12 9 -29 20 -37 11 -8 20 -21 20 -30 0 -8 9 -21 20 -28 11 -7 20 -21 20 -31 0 -10 11 -27 25 -37 14 -10 25 -27 25 -36 0 -10 5 -18 10 -18 6 0 10 -7 10 -16 0 -8 4 -12 10 -9 5 3 10 -1 10 -9 0 -9 5 -16 10 -16 6 0 10 -9 10 -20 0 -11 5 -20 11 -20 16 0 39 -27 39 -47 0 -10 21 -35 45 -57 24 -21 42 -43 39 -47 -3 -5 27 -40 65 -77 39 -38 71 -73 71 -80 0 -15 287 -302 302 -302 7 0 42 -32 80 -71 37 -38 72 -68 77 -65 4 3 26 -15 47 -39 22 -24 47 -45 57 -45 19 0 67 -43 67 -60 0 -5 9 -10 20 -10 11 0 20 -4 20 -10 0 -5 7 -10 15 -10 8 0 15 -4 15 -10 0 -5 8 -10 18 -10 9 0 26 -11 36 -25 10 -14 27 -25 37 -25 10 0 24 -9 31 -20 7 -11 20 -20 28 -20 9 0 22 -9 30 -20 8 -11 25 -20 37 -20 13 0 23 -4 23 -10 0 -5 7 -10 16 -10 18 0 44 -23 44 -39 0 -6 11 -11 25 -11 14 0 25 -4 25 -10 0 -5 9 -10 20 -10 11 0 20 -4 20 -10 0 -5 7 -10 16 -10 9 0 27 -11 40 -25 13 -14 30 -25 39 -25 8 0 15 -4 15 -10 0 -5 9 -10 20 -10 11 0 20 -4 20 -10 0 -5 11 -10 25 -10 14 0 25 -4 25 -10 0 -5 14 -10 30 -10 17 0 30 -4 30 -10 0 -5 9 -10 19 -10 11 0 23 -4 26 -10 3 -5 15 -10 26 -10 10 0 19 -7 19 -15 0 -8 9 -15 20 -15 11 0 20 -4 20 -10 0 -5 16 -10 35 -10 19 0 35 -4 35 -10 0 -5 9 -10 20 -10 11 0 20 -4 20 -10 0 -5 16 -10 35 -10 19 0 35 -4 35 -10 0 -5 13 -10 29 -10 16 0 31 -6 35 -15 3 -9 18 -15 36 -15 16 0 30 -4 30 -10 0 -5 14 -10 30 -10 17 0 30 -4 30 -10 0 -5 16 -10 35 -10 19 0 35 -4 35 -10 0 -5 13 -10 29 -10 17 0 33 -5 36 -10 3 -6 22 -10 41 -10 20 0 43 -7 51 -16 11 -11 27 -14 50 -11 24 4 33 2 33 -9 0 -10 14 -14 55 -14 30 0 55 -4 55 -10 0 -5 25 -10 55 -10 30 0 55 -4 55 -10 0 -5 25 -10 55 -10 30 0 55 -4 55 -10 0 -6 35 -10 84 -10 59 0 86 -4 89 -12 6 -19 1068 -19 1075 0 2 8 27 12 78 12 43 0 74 4 74 10 0 6 28 10 65 10 37 0 65 4 65 10 0 6 25 10 55 10 30 0 55 5 55 10 0 6 18 10 39 10 22 0 43 5 46 10 3 6 21 10 39 10 19 0 39 7 46 15 7 9 29 15 51 15 22 0 39 5 39 10 0 6 16 10 35 10 19 0 35 5 35 10 0 6 20 10 45 10 25 0 45 5 45 10 0 6 14 10 30 10 17 0 30 5 30 10 0 6 14 10 30 10 18 0 33 6 36 15 4 8 15 15 25 15 10 0 19 5 19 10 0 6 16 10 35 10 19 0 35 5 35 10 0 6 14 10 30 10 17 0 30 5 30 10 0 6 9 10 20 10 11 0 20 5 20 10 0 6 11 10 25 10 16 0 25 6 25 15 0 10 10 15 30 15 17 0 30 5 30 10 0 6 11 10 25 10 14 0 25 5 25 10 0 6 9 10 20 10 11 0 20 5 20 10 0 6 9 10 20 10 11 0 20 5 20 10 0 6 11 10 25 10 14 0 25 5 25 10 0 6 9 10 20 10 11 0 20 7 20 15 0 9 9 15 25 15 14 0 25 5 25 10 0 6 8 10 18 10 10 0 24 9 32 20 8 11 22 20 32 20 10 0 18 5 18 10 0 6 8 10 19 10 10 0 27 11 37 25 10 14 27 25 36 25 10 0 18 5 18 10 0 6 10 10 23 10 12 0 29 9 37 20 8 11 21 20 28 20 8 0 23 11 34 25 11 14 27 25 37 25 9 0 23 9 31 20 8 11 22 20 32 20 10 0 18 5 18 10 0 6 7 10 15 10 8 0 15 5 15 11 0 14 26 39 40 39 6 0 21 10 34 23 42 40 66 57 81 57 8 0 15 5 15 10 0 13 45 60 57 60 5 0 15 9 23 20 8 11 20 20 26 20 14 0 424 407 424 422 0 5 14 23 30 38 17 15 30 31 30 35 0 11 28 35 40 35 7 0 10 8 7 20 -3 11 -1 20 5 20 13 0 38 26 38 39 0 6 5 11 10 11 6 0 10 8 10 18 0 9 16 30 35 47 19 16 35 37 35 45 0 9 9 22 20 30 11 8 20 21 20 30 0 9 9 22 20 30 11 8 20 23 20 33 0 20 22 47 39 47 6 0 11 8 11 18 0 10 9 24 20 32 11 8 20 25 20 37 0 13 5 23 10 23 6 0 10 8 10 18 0 9 11 26 25 36 14 10 25 27 25 37 0 11 5 19 10 19 6 0 10 9 10 20 0 11 5 20 10 20 6 0 10 11 10 25 0 14 5 25 10 25 6 0 10 9 10 20 0 11 5 20 10 20 6 0 10 9 10 19 0 10 7 21 15 25 8 3 15 15 15 26 0 11 5 20 10 20 6 0 10 9 10 20 0 11 5 20 10 20 6 0 10 9 10 20 0 11 5 20 10 20 6 0 10 11 10 25 0 14 5 25 10 25 6 0 10 9 10 19 0 10 7 22 16 25 11 4 15 14 11 32 -3 16 1 28 9 31 8 3 14 14 14 24 0 10 5 19 10 19 6 0 10 16 10 36 0 21 4 33 10 29 6 -4 10 8 10 29 0 20 5 36 10 36 6 0 10 9 10 19 0 11 5 23 10 26 6 3 10 19 10 36 0 19 5 29 15 29 11 0 15 12 15 45 0 25 5 45 10 45 6 0 10 14 10 30 0 17 5 30 10 30 6 0 10 16 10 35 0 19 5 35 10 35 6 0 10 20 10 45 0 25 5 45 10 45 6 0 10 23 10 50 0 36 4 52 15 56 10 4 15 20 15 45 0 21 5 39 10 39 6 0 10 25 10 55 0 30 5 55 10 55 6 0 10 34 10 81 0 51 4 78 10 74 6 -4 10 27 10 84 0 54 4 91 10 91 6 0 10 61 10 164 0 136 3 165 15 170 22 8 22 238 0 256 -12 10 -15 42 -15 171 0 99 -4 159 -10 159 -6 0 -10 40 -10 100 0 60 -4 100 -10 100 -6 0 -10 28 -10 65 0 37 -4 65 -10 65 -5 0 -10 25 -10 55 0 37 -4 55 -12 55 -9 0 -12 15 -10 50 3 39 0 51 -12 56 -12 5 -16 20 -16 60 0 30 -4 54 -10 54 -5 0 -10 18 -10 40 0 22 -4 40 -10 40 -5 0 -10 16 -10 35 0 19 -4 35 -10 35 -5 0 -10 20 -10 45 0 25 -4 45 -10 45 -5 0 -10 14 -10 30 0 20 -5 30 -15 30 -11 0 -15 12 -15 45 0 25 -4 45 -10 45 -5 0 -10 16 -10 35 0 19 -4 35 -10 35 -5 0 -10 18 -10 40 0 22 -4 40 -10 40 -5 0 -10 16 -10 35 0 19 -4 35 -10 35 -5 0 -10 18 -10 39 0 22 -5 41 -12 43 -8 3 -11 20 -9 46 2 33 -1 42 -13 42 -13 0 -16 12 -16 55 0 30 -4 55 -10 55 -6 0 -10 65 -10 175 0 110 4 175 10 175 6 0 10 18 10 39 0 26 5 41 16 45 9 4 14 13 10 21 -3 9 1 18 9 21 8 4 15 15 15 25 0 10 5 19 10 19 6 0 10 9 10 20 0 11 5 20 10 20 6 0 10 9 10 20 0 21 61 90 80 90 5 0 10 7 10 16 0 8 5 12 10 9 6 -3 10 -1 10 5 0 19 68 80 90 80 11 0 20 5 20 10 0 6 8 10 18 10 10 0 25 11 32 25 10 19 21 25 47 25 18 0 33 5 33 10 0 6 14 10 30 10 17 0 30 5 30 10 0 6 20 10 45 10 25 0 45 5 45 10 0 6 38 10 95 10 57 0 95 -4 95 -10 0 -5 20 -10 45 -10 25 0 45 -4 45 -10 0 -5 13 -10 29 -10 17 0 33 -4 36 -10 3 -5 15 -10 26 -10 11 0 19 -7 19 -16 0 -11 6 -15 20 -11 11 3 20 1 20 -5 0 -15 27 -38 45 -38 17 0 112 -90 108 -102 -2 -5 2 -8 7 -8 19 0 100 -89 100 -110 0 -11 5 -20 11 -20 16 0 39 -26 39 -44 0 -9 5 -16 10 -16 6 0 10 -7 10 -15 0 -8 5 -15 10 -15 6 0 10 -8 10 -18 0 -10 9 -24 20 -32 11 -8 20 -20 20 -28 0 -7 11 -23 25 -36 14 -13 25 -31 25 -40 0 -9 5 -16 10 -16 6 0 10 -9 10 -20 0 -11 5 -20 10 -20 6 0 10 -10 10 -23 0 -12 9 -29 20 -37 11 -8 20 -22 20 -32 0 -10 7 -18 15 -18 9 0 15 -9 15 -25 0 -14 5 -25 10 -25 6 0 10 -9 10 -20 0 -11 5 -20 10 -20 6 0 10 -9 10 -20 0 -11 5 -20 10 -20 6 0 10 -11 10 -25 0 -14 5 -25 10 -25 6 0 10 -9 10 -20 0 -12 7 -20 16 -20 10 0 14 -6 11 -14 -3 -8 1 -20 9 -26 8 -7 14 -21 14 -31 0 -11 5 -19 10 -19 6 0 10 -9 10 -20 0 -11 5 -20 10 -20 6 0 10 -11 10 -25 0 -16 6 -25 16 -25 8 0 12 -4 9 -10 -3 -5 0 -10 8 -10 10 0 13 -7 10 -20 -4 -14 0 -20 11 -20 9 0 16 -8 16 -19 0 -11 5 -23 10 -26 6 -3 10 -15 10 -26 0 -10 5 -19 10 -19 6 0 10 -9 10 -20 0 -11 5 -20 10 -20 6 0 10 -12 10 -26 0 -14 4 -23 10 -19 6 4 10 -5 10 -19 0 -17 5 -26 16 -26 10 0 14 -5 10 -15 -3 -9 1 -18 9 -21 8 -4 15 -17 15 -30 0 -13 5 -24 10 -24 6 0 10 -9 10 -20 0 -11 5 -20 10 -20 6 0 10 -9 10 -20 0 -11 5 -20 10 -20 6 0 10 -11 10 -25 0 -14 5 -25 10 -25 6 0 10 -9 10 -20 0 -11 7 -20 15 -20 8 0 15 -9 15 -19 0 -11 5 -23 10 -26 6 -3 10 -15 10 -26 0 -10 5 -19 10 -19 6 0 10 -9 10 -20 0 -11 5 -20 10 -20 6 0 10 -11 10 -25 0 -14 5 -25 10 -25 6 0 10 -9 10 -20 0 -11 7 -20 15 -20 8 0 15 -9 15 -20 0 -11 5 -20 10 -20 6 0 10 -11 10 -25 0 -14 5 -25 10 -25 6 0 10 -9 10 -20 0 -11 5 -20 10 -20 6 0 10 -9 10 -20 0 -11 5 -20 10 -20 6 0 10 -11 10 -25 0 -15 6 -25 14 -25 9 0 12 -7 9 -20 -4 -14 0 -20 11 -20 10 0 16 -9 16 -25 0 -14 5 -25 10 -25 6 0 10 -9 10 -20 0 -11 5 -20 10 -20 6 0 10 -9 10 -20 0 -11 5 -20 10 -20 6 0 10 -11 10 -25 0 -14 5 -25 10 -25 6 0 10 -9 10 -20 0 -11 7 -20 15 -20 8 0 15 -9 15 -20 0 -11 5 -20 10 -20 6 0 10 -11 10 -25 0 -14 5 -25 10 -25 6 0 10 -9 10 -20 0 -11 5 -20 10 -20 6 0 10 -9 10 -20 0 -11 5 -20 10 -20 6 0 10 -11 10 -25 0 -14 5 -25 10 -25 6 0 10 -7 10 -15 0 -9 7 -18 15 -21 8 -4 15 -17 15 -30 0 -13 5 -24 10 -24 6 0 10 -9 10 -20 0 -11 5 -20 10 -20 6 0 10 -9 10 -20 0 -11 5 -20 10 -20 6 0 10 -11 10 -25 0 -14 5 -25 10 -25 6 0 10 -9 10 -20 0 -11 7 -20 15 -20 8 0 15 -9 15 -20 0 -11 5 -20 10 -20 6 0 10 -11 10 -25 0 -14 5 -25 10 -25 6 0 10 -9 10 -20 0 -11 5 -20 10 -20 6 0 10 -11 10 -25 0 -14 5 -25 10 -25 6 0 10 -9 10 -20 0 -11 5 -20 10 -20 6 0 10 -7 10 -15 0 -9 7 -18 15 -21 8 -4 15 -17 15 -30 0 -13 5 -24 10 -24 6 0 10 -9 10 -20 0 -11 5 -20 10 -20 6 0 10 -9 10 -20 0 -11 5 -20 10 -20 6 0 10 -11 10 -25 0 -15 6 -25 14 -25 9 0 12 -7 9 -20 -4 -14 0 -20 11 -20 9 0 16 -8 16 -19 0 -11 5 -23 10 -26 6 -3 10 -15 10 -26 0 -10 5 -19 10 -19 6 0 10 -9 10 -20 0 -11 5 -20 10 -20 6 0 10 -11 10 -25 0 -14 5 -25 10 -25 6 0 10 -9 10 -20 0 -12 7 -20 16 -20 10 0 14 -5 10 -15 -3 -9 1 -18 9 -21 8 -4 15 -17 15 -30 0 -13 5 -24 10 -24 6 0 10 -9 10 -20 0 -11 5 -20 10 -20 6 0 10 -9 10 -20 0 -11 5 -20 10 -20 6 0 10 -11 10 -25 0 -14 5 -25 10 -25 6 0 10 -9 10 -20 0 -11 7 -20 15 -20 8 0 15 -9 15 -19 0 -11 5 -23 10 -26 6 -3 10 -15 10 -26 0 -10 5 -19 10 -19 6 0 10 -9 10 -20 0 -11 5 -20 10 -20 6 0 10 -12 10 -26 0 -14 4 -23 10 -19 6 4 10 -5 10 -19 0 -17 5 -26 16 -26 10 0 14 -5 10 -15 -3 -9 1 -18 9 -21 8 -4 15 -17 15 -30 0 -13 5 -24 10 -24 6 0 10 -9 10 -20 0 -11 5 -20 10 -20 6 0 10 -7 10 -16 0 -9 11 -25 25 -35 14 -12 22 -26 19 -34 -4 -8 1 -18 10 -21 9 -3 16 -15 16 -25 0 -10 5 -19 10 -19 6 0 10 -11 10 -25 0 -14 5 -25 10 -25 6 0 10 -9 10 -20 0 -11 5 -20 10 -20 6 0 10 -9 10 -20 0 -11 5 -20 10 -20 6 0 10 -9 10 -20 0 -11 7 -23 15 -26 8 -4 15 -14 15 -23 0 -9 9 -23 20 -31 11 -8 20 -25 20 -37 0 -13 5 -23 10 -23 6 0 10 -9 10 -20 0 -11 5 -20 10 -20 6 0 10 -9 10 -20 0 -11 5 -20 10 -20 6 0 10 -8 10 -19 0 -10 11 -27 25 -37 14 -10 25 -27 25 -36 0 -10 5 -18 10 -18 6 0 10 -10 10 -23 0 -12 9 -29 20 -37 11 -8 20 -22 20 -31 0 -9 7 -19 15 -23 8 -3 15 -14 15 -23 0 -10 9 -25 20 -33 11 -8 20 -22 20 -32 0 -10 5 -18 10 -18 6 0 10 -9 10 -21 0 -22 22 -49 39 -49 6 0 8 -6 5 -13 -3 -8 7 -22 21 -33 14 -10 25 -28 25 -39 0 -11 9 -27 20 -35 11 -8 20 -20 20 -27 0 -6 16 -27 35 -46 19 -19 35 -40 35 -48 0 -8 9 -21 20 -29 11 -8 20 -20 20 -27 0 -8 16 -29 35 -47 19 -19 35 -40 35 -48 0 -7 9 -20 20 -28 11 -8 20 -19 20 -25 0 -6 9 -17 20 -25 11 -8 20 -22 20 -32 0 -10 5 -18 11 -18 11 0 39 -25 39 -35 0 -8 47 -55 55 -55 13 0 36 -30 31 -39 -8 -12 331 -351 351 -351 14 0 43 -23 43 -35 0 -9 48 -55 57 -55 5 0 17 -11 27 -25 11 -14 25 -24 33 -21 7 3 13 -1 13 -10 0 -8 5 -12 10 -9 6 3 10 -1 10 -9 0 -9 7 -16 16 -16 8 0 12 -4 9 -10 -3 -6 4 -10 17 -10 14 0 35 -14 53 -35 16 -19 36 -35 43 -35 8 0 27 -13 42 -30 15 -16 34 -30 40 -30 7 0 23 -12 36 -26 13 -14 28 -23 33 -19 5 3 18 -6 29 -20 11 -14 30 -25 42 -25 11 0 18 -5 15 -10 -3 -6 4 -10 17 -10 13 0 30 -9 38 -20 8 -11 22 -20 31 -20 9 0 19 -7 23 -15 3 -8 14 -15 23 -15 10 0 25 -9 33 -20 8 -11 22 -20 32 -20 10 0 18 -4 18 -10 0 -5 11 -10 25 -10 14 0 25 -4 25 -10 0 -5 9 -10 20 -10 11 0 20 -4 20 -9 0 -11 56 -41 77 -41 7 0 13 -4 13 -10 0 -5 9 -10 20 -10 11 0 20 -4 20 -10 0 -5 9 -10 20 -10 11 0 20 -4 20 -10 0 -5 11 -10 25 -10 14 0 25 -4 25 -10 0 -5 13 -10 29 -10 16 0 31 -6 35 -15 3 -8 15 -15 26 -15 11 0 20 -4 20 -10 0 -5 9 -10 20 -10 11 0 20 -4 20 -10 0 -5 16 -10 35 -10 19 0 35 -4 35 -10 0 -5 14 -10 30 -10 17 0 30 -4 30 -10 0 -5 9 -10 20 -10 10 0 23 -7 28 -16 6 -12 18 -15 36 -12 18 4 26 1 26 -8 0 -9 12 -14 35 -14 19 0 35 -4 35 -10 0 -5 18 -10 40 -10 22 0 40 -4 40 -10 0 -5 16 -10 35 -10 19 0 35 -4 35 -10 0 -5 20 -10 44 -10 31 0 46 -5 50 -16 4 -11 16 -15 43 -12 22 2 38 -2 41 -10 2 -7 21 -12 43 -12 21 0 39 -4 39 -10 0 -5 25 -10 55 -10 30 0 55 -4 55 -10 0 -6 28 -10 65 -10 37 0 65 -4 65 -10 0 -6 36 -10 89 -10 62 0 91 -4 93 -12 7 -19 999 -19 1006 0 2 8 30 12 88 12 49 0 84 4 84 10 0 6 28 10 65 10 37 0 65 4 65 10 0 6 25 10 55 10 30 0 55 5 55 10 0 6 20 10 45 10 32 0 45 4 45 14 0 11 9 13 33 9 23 -3 39 0 50 11 8 9 32 16 51 16 20 0 36 5 36 10 0 6 20 10 45 10 25 0 45 5 45 10 0 6 16 10 35 10 19 0 35 5 35 10 0 6 14 10 30 10 17 0 30 5 30 10 0 6 14 10 30 10 18 0 33 6 36 15 4 9 19 15 35 15 16 0 29 5 29 10 0 6 11 10 25 10 14 0 25 5 25 10 0 6 14 10 30 10 17 0 30 5 30 10 0 6 9 10 20 10 11 0 20 5 20 10 0 6 16 10 35 10 24 0 35 5 35 15 0 8 9 15 19 15 11 0 23 5 26 10 3 6 15 10 26 10 10 0 19 5 19 10 0 6 9 10 20 10 11 0 20 5 20 10 0 6 11 10 25 10 14 0 25 5 25 10 0 6 9 10 20 10 11 0 20 6 20 14 0 9 7 12 20 9 14 -4 20 0 20 11 0 10 9 16 25 16 14 0 25 5 25 10 0 6 9 10 20 10 11 0 20 5 20 10 0 6 9 10 20 10 11 0 20 5 20 10 0 6 11 10 25 10 14 0 25 5 25 11 0 16 26 39 44 39 9 0 16 5 16 10 0 6 10 10 23 10 12 0 29 9 37 20 8 11 21 20 30 20 8 0 21 9 28 20 7 11 21 20 31 20 10 0 27 11 37 25 10 14 27 25 36 25 10 0 18 5 18 10 0 6 7 10 16 10 8 0 12 5 9 10 -4 6 5 10 19 10 14 0 26 5 26 10 0 17 48 60 67 60 10 0 35 21 57 45 21 24 43 42 47 39 5 -3 40 27 77 65 38 39 73 71 80 71 14 0 332 316 332 330 0 6 25 36 55 66 31 30 53 58 51 63 -3 5 15 26 39 47 24 22 45 47 45 57 0 19 43 67 60 67 5 0 10 9 10 20 0 11 5 20 10 20 6 0 10 7 10 15 0 8 5 15 10 15 6 0 10 8 10 18 0 9 16 30 35 47 19 16 35 38 35 47 0 10 5 18 10 18 6 0 10 8 10 18 0 10 9 24 20 32 11 8 20 23 20 33 0 20 22 47 39 47 6 0 11 9 11 20 0 11 5 20 10 20 6 0 10 11 10 25 0 14 5 25 10 25 6 0 10 9 10 20 0 11 5 20 10 20 6 0 10 7 10 16 0 9 11 27 25 40 14 13 25 30 25 39 0 8 5 15 10 15 6 0 10 9 10 20 0 11 5 20 10 20 6 0 10 11 10 25 0 14 5 25 10 25 6 0 10 9 10 20 0 11 5 20 10 20 6 0 10 13 10 29 0 17 4 33 10 36 5 3 10 15 10 26 0 10 7 19 15 19 8 0 15 9 15 20 0 11 5 20 10 20 6 0 10 16 10 35 0 19 5 35 10 35 6 0 10 9 10 20 0 11 5 20 10 20 6 0 10 16 10 35 0 19 5 35 10 35 6 0 10 13 10 29 0 17 6 31 16 35 9 4 14 13 10 21 -3 9 1 18 9 21 10 4 15 20 15 45 0 21 5 39 10 39 6 0 10 16 10 35 0 19 5 35 10 35 6 0 10 13 10 29 0 17 4 33 10 36 5 3 10 22 10 41 0 20 7 43 16 51 11 11 14 27 11 50 -4 24 -2 33 9 33 10 0 14 13 14 45 0 25 5 45 10 45 6 0 10 25 10 55 0 30 5 55 10 55 6 0 10 28 10 65 0 37 4 65 10 65 6 0 10 35 10 84 0 59 4 86 13 88 9 4 12 120 12 538 0 418 -3 534 -12 538 -9 2 -13 27 -13 78 0 43 -4 74 -10 74 -6 0 -10 28 -10 65 0 37 -4 65 -10 65 -6 0 -10 28 -10 65 0 37 -4 65 -10 65 -5 0 -10 20 -10 45 0 32 -4 45 -14 45 -11 0 -13 9 -9 33 3 23 0 39 -11 50 -9 8 -16 32 -16 51 0 20 -4 36 -10 36 -5 0 -10 20 -10 45 0 25 -4 45 -10 45 -5 0 -10 16 -10 35 0 19 -4 35 -10 35 -5 0 -10 13 -10 29 0 16 -6 31 -14 34 -8 3 -12 15 -9 31 4 18 0 28 -11 32 -10 4 -16 18 -16 35 0 16 -4 29 -10 29 -5 0 -10 16 -10 35 0 19 -4 35 -10 35 -5 0 -10 16 -10 35 0 19 -4 35 -10 35 -5 0 -10 14 -10 30 0 17 -4 30 -10 30 -5 0 -10 9 -10 19 0 10 -7 21 -15 25 -9 3 -15 18 -15 36 0 16 -4 30 -10 30 -5 0 -10 9 -10 20 0 11 -4 20 -10 20 -5 0 -10 16 -10 35 0 19 -4 35 -10 35 -5 0 -10 9 -10 20 0 11 -4 20 -10 20 -5 0 -10 16 -10 35 0 19 -4 35 -10 35 -5 0 -10 7 -10 15 0 9 -7 18 -15 21 -8 4 -15 15 -15 25 0 10 -4 19 -10 19 -5 0 -10 11 -10 25 0 14 -4 25 -10 25 -5 0 -10 14 -10 30 0 17 -4 30 -10 30 -5 0 -10 11 -10 25 0 14 -4 25 -10 25 -5 0 -10 9 -10 20 0 11 -7 20 -15 20 -8 0 -15 9 -15 19 0 11 -4 23 -10 26 -5 3 -10 19 -10 36 0 16 -4 29 -10 29 -5 0 -10 9 -10 20 0 11 -4 20 -10 20 -5 0 -10 11 -10 25 0 14 -4 25 -10 25 -5 0 -10 9 -10 19 0 10 -7 21 -15 25 -8 3 -12 12 -9 19 3 8 -2 17 -10 20 -9 4 -16 16 -16 27 0 11 -4 20 -10 20 -5 0 -10 9 -10 20 0 11 -4 20 -10 20 -5 0 -10 11 -10 25 0 14 -4 25 -10 25 -5 0 -10 9 -10 20 0 11 -4 20 -10 20 -5 0 -10 9 -10 19 0 10 -7 21 -15 25 -9 3 -15 18 -15 36 0 16 -4 30 -10 30 -5 0 -10 9 -10 20 0 11 -4 20 -10 20 -5 0 -10 11 -10 25 0 14 -4 25 -10 25 -5 0 -10 9 -10 20 0 11 -4 20 -10 20 -5 0 -10 9 -10 19 0 10 -7 21 -15 25 -8 3 -12 12 -9 21 4 8 -1 17 -10 21 -9 3 -16 15 -16 25 0 10 -4 19 -10 19 -5 0 -10 11 -10 25 0 14 -4 25 -10 25 -5 0 -10 9 -10 20 0 11 -4 20 -10 20 -5 0 -10 9 -10 20 0 11 -4 20 -10 20 -5 0 -10 9 -10 19 0 10 -7 21 -15 25 -8 3 -15 15 -15 26 0 11 -4 20 -10 20 -5 0 -10 9 -10 20 0 11 -4 20 -10 20 -5 0 -10 11 -10 25 0 14 -4 25 -10 25 -5 0 -10 9 -10 20 0 11 -4 20 -10 20 -5 0 -10 9 -10 19 0 10 -7 21 -15 25 -8 3 -12 12 -9 21 4 8 -1 17 -10 21 -9 3 -16 15 -16 25 0 10 -4 19 -10 19 -5 0 -10 12 -10 26 0 14 -4 23 -10 19 -6 -4 -10 5 -10 19 0 14 -4 26 -10 26 -5 0 -10 9 -10 20 0 11 -4 20 -10 20 -5 0 -10 9 -10 19 0 10 -7 21 -15 25 -8 3 -15 15 -15 26 0 11 -4 20 -10 20 -5 0 -10 9 -10 20 0 11 -4 20 -10 20 -5 0 -10 11 -10 25 0 14 -4 25 -10 25 -5 0 -10 9 -10 20 0 11 -4 20 -10 20 -5 0 -10 9 -10 20 0 11 -4 20 -9 20 -5 0 -12 11 -15 25 -4 14 -11 25 -16 25 -6 0 -10 9 -10 20 0 11 -4 20 -10 20 -5 0 -10 11 -10 25 0 14 -4 25 -10 25 -5 0 -10 9 -10 20 0 11 -4 20 -10 20 -5 0 -10 9 -10 19 0 10 -7 21 -15 25 -8 3 -12 12 -9 21 4 8 -1 17 -10 21 -9 3 -16 15 -16 25 0 10 -4 19 -10 19 -5 0 -10 9 -10 20 0 11 -4 20 -10 20 -5 0 -10 11 -10 25 0 14 -4 25 -10 25 -5 0 -10 9 -10 20 0 11 -4 20 -10 20 -5 0 -10 9 -10 19 0 10 -7 21 -15 25 -8 3 -15 15 -15 26 0 11 -4 20 -10 20 -5 0 -10 9 -10 20 0 11 -4 20 -10 20 -5 0 -10 12 -10 26 0 14 -4 23 -10 19 -6 -4 -10 5 -10 19 0 14 -4 26 -10 26 -5 0 -10 9 -10 19 0 10 -7 21 -15 25 -8 3 -12 12 -9 21 4 8 -1 17 -10 21 -9 3 -16 15 -16 25 0 10 -4 19 -10 19 -5 0 -10 9 -10 20 0 11 -4 20 -10 20 -5 0 -10 11 -10 25 0 14 -4 25 -10 25 -5 0 -10 9 -10 20 0 11 -4 20 -10 20 -5 0 -10 9 -10 19 0 10 -7 21 -15 25 -8 3 -15 15 -15 26 0 11 -4 20 -10 20 -5 0 -10 9 -10 20 0 11 -4 20 -10 20 -5 0 -10 11 -10 25 0 14 -4 25 -10 25 -5 0 -10 9 -10 20 0 11 -4 20 -10 20 -5 0 -10 9 -10 20 0 11 -4 20 -10 20 -5 0 -10 9 -10 20 0 11 -7 23 -15 26 -8 4 -15 15 -15 25 0 10 -4 19 -10 19 -5 0 -10 9 -10 20 0 11 -4 20 -10 20 -5 0 -10 11 -10 25 0 14 -4 25 -10 25 -5 0 -10 9 -10 20 0 11 -4 20 -10 20 -5 0 -10 9 -10 19 0 10 -7 21 -15 25 -8 3 -15 15 -15 26 0 11 -4 20 -10 20 -5 0 -10 9 -10 20 0 11 -4 20 -10 20 -5 0 -10 11 -10 25 0 14 -4 25 -10 25 -5 0 -10 9 -10 20 0 11 -4 20 -10 20 -5 0 -10 9 -10 19 0 10 -7 21 -15 25 -8 3 -12 12 -9 21 4 8 -1 17 -10 21 -9 3 -16 15 -16 25 0 10 -4 19 -10 19 -5 0 -10 11 -10 25 0 14 -4 25 -10 25 -5 0 -10 14 -10 30 0 17 -4 30 -10 30 -5 0 -10 9 -10 20 0 11 -4 20 -10 20 -5 0 -10 9 -10 20 0 11 -7 23 -15 26 -8 4 -15 15 -15 25 0 10 -4 19 -10 19 -5 0 -10 9 -10 20 0 11 -4 20 -10 20 -5 0 -10 11 -10 25 0 14 -4 25 -10 25 -5 0 -10 9 -10 20 0 11 -4 20 -10 20 -5 0 -10 16 -10 35 0 24 -5 35 -15 35 -9 0 -12 6 -9 15 4 8 -1 17 -10 21 -9 3 -16 14 -16 24 0 11 -4 22 -10 25 -5 3 -10 19 -10 36 0 16 -4 29 -10 29 -5 0 -10 16 -10 35 0 19 -4 35 -10 35 -5 0 -10 14 -10 30 0 17 -4 30 -10 30 -5 0 -10 18 -10 40 0 27 -5 43 -15 46 -11 5 -15 21 -15 60 0 30 -4 54 -10 54 -13 0 -13 247 0 255 5 3 10 23 10 45 0 24 5 40 15 44 9 3 15 18 15 36 0 16 5 30 10 30 6 0 10 9 10 20 0 11 5 20 10 20 6 0 10 9 10 20 0 11 5 20 10 20 6 0 10 7 10 15 0 8 5 15 10 15 6 0 10 7 10 16 0 18 23 44 39 44 6 0 11 9 11 20 0 25 191 220 215 220 16 0 45 22 45 35 0 12 50 55 65 55 8 0 15 5 15 10 0 6 6 10 13 10 7 0 19 9 27 20 8 11 22 20 32 20 10 0 18 5 18 11 0 15 51 59 68 59 8 0 27 14 42 30 15 17 34 30 42 30 7 0 27 16 43 35 17 19 36 35 43 35 7 0 32 20 56 45 25 25 50 45 58 45 7 0 20 9 28 20 8 11 19 20 25 20 6 0 17 9 25 20 8 11 22 20 32 20 10 0 18 5 18 11 0 11 25 39 35 39 8 0 55 47 55 55 0 13 30 36 39 31 12 -8 351 331 351 351 0 14 23 43 35 43 9 0 55 48 55 57 0 5 11 17 25 27 14 11 24 25 21 33 -3 7 1 13 10 13 8 0 12 5 9 10 -3 6 1 10 9 10 9 0 16 7 16 16 0 8 5 12 10 9 6 -3 10 4 10 17 0 14 14 35 35 53 19 16 35 36 35 43 0 8 13 27 30 42 16 15 30 34 30 40 0 7 12 23 26 36 14 13 23 28 19 33 -3 5 6 18 20 29 14 11 25 30 25 42 0 11 5 18 10 15 6 -3 10 4 10 17 0 13 9 30 20 38 11 8 20 22 20 31 0 9 7 19 15 23 8 3 15 14 15 23 0 10 9 25 20 33 11 8 20 22 20 32 0 10 5 18 10 18 6 0 10 11 10 25 0 14 5 25 10 25 6 0 10 9 10 20 0 11 4 20 9 20 11 0 41 56 41 77 0 7 5 13 10 13 6 0 10 9 10 20 0 11 5 20 10 20 6 0 10 9 10 20 0 11 5 20 10 20 6 0 10 11 10 25 0 14 5 25 10 25 6 0 10 13 10 29 0 16 6 31 15 35 8 3 15 15 15 26 0 11 5 20 10 20 6 0 10 9 10 20 0 11 5 20 10 20 6 0 10 16 10 35 0 19 5 35 10 35 6 0 10 14 10 30 0 17 5 30 10 30 6 0 10 9 10 20 0 10 7 23 16 28 12 6 15 18 12 36 -4 18 -1 26 8 26 9 0 14 12 14 35 0 19 5 35 10 35 6 0 10 18 10 40 0 22 5 40 10 40 6 0 10 16 10 35 0 19 5 35 10 35 6 0 10 20 10 44 0 31 5 46 16 50 11 4 15 16 12 43 -2 22 2 38 10 41 7 2 12 21 12 43 0 21 5 39 10 39 6 0 10 25 10 55 0 30 5 55 10 55 6 0 10 28 10 65 0 37 4 65 10 65 6 0 10 36 10 89 0 62 4 91 12 93 19 7 19 999 0 1006 -8 2 -12 30 -12 88 0 49 -4 84 -10 84 -6 0 -10 28 -10 65 0 37 -4 65 -10 65 -5 0 -10 25 -10 55 0 30 -4 55 -10 55 -5 0 -10 20 -10 45 0 32 -4 45 -14 45 -11 0 -13 9 -9 33 3 23 0 39 -11 50 -9 8 -16 32 -16 51 0 20 -4 36 -10 36 -5 0 -10 20 -10 45 0 25 -4 45 -10 45 -5 0 -10 16 -10 35 0 19 -4 35 -10 35 -5 0 -10 14 -10 30 0 17 -4 30 -10 30 -5 0 -10 14 -10 30 0 18 -6 33 -15 36 -9 4 -15 19 -15 35 0 16 -4 29 -10 29 -5 0 -10 11 -10 25 0 14 -4 25 -10 25 -5 0 -10 14 -10 30 0 17 -4 30 -10 30 -5 0 -10 9 -10 20 0 11 -4 20 -10 20 -5 0 -10 16 -10 35 0 24 -5 35 -15 35 -8 0 -15 9 -15 19 0 11 -4 23 -10 26 -5 3 -10 15 -10 26 0 10 -4 19 -10 19 -5 0 -10 9 -10 20 0 11 -4 20 -10 20 -5 0 -10 11 -10 25 0 14 -4 25 -10 25 -5 0 -10 9 -10 20 0 11 -6 20 -14 20 -9 0 -12 7 -9 20 4 14 0 20 -11 20 -10 0 -16 9 -16 25 0 14 -4 25 -10 25 -5 0 -10 9 -10 20 0 11 -4 20 -10 20 -5 0 -10 9 -10 20 0 11 -4 20 -10 20 -5 0 -10 11 -10 25 0 14 -5 25 -11 25 -16 0 -39 26 -39 44 0 9 -4 16 -10 16 -5 0 -10 10 -10 23 0 12 -9 29 -20 37 -11 8 -20 21 -20 30 0 8 -9 21 -20 28 -11 7 -20 21 -20 31 0 10 -11 27 -25 37 -14 10 -25 27 -25 36 0 10 -4 18 -10 18 -5 0 -10 7 -10 16 0 8 -4 12 -10 9 -6 -4 -10 5 -10 19 0 14 -5 26 -10 26 -17 0 -60 48 -60 67 0 10 -21 35 -45 57 -24 21 -42 43 -39 47 3 5 -27 40 -65 77 -39 38 -71 73 -71 80 0 15 -287 302 -302 302 -7 0 -42 32 -80 71 -37 38 -72 68 -77 65 -4 -3 -26 15 -47 39 -22 24 -47 45 -57 45 -19 0 -67 43 -67 60 0 5 -9 10 -20 10 -11 0 -20 5 -20 10 0 6 -7 10 -15 10 -8 0 -15 5 -15 10 0 6 -8 10 -18 10 -9 0 -26 11 -36 25 -10 14 -27 25 -37 25 -10 0 -24 9 -31 20 -7 11 -20 20 -28 20 -9 0 -22 9 -30 20 -8 11 -23 20 -33 20 -20 0 -47 22 -47 39 0 6 -9 11 -20 11 -11 0 -20 5 -20 10 0 6 -11 10 -25 10 -14 0 -25 5 -25 10 0 6 -9 10 -20 10 -11 0 -20 5 -20 10 0 6 -7 10 -16 10 -9 0 -27 11 -40 25 -13 14 -30 25 -39 25 -8 0 -15 5 -15 10 0 6 -9 10 -20 10 -11 0 -20 5 -20 10 0 6 -11 10 -25 10 -14 0 -25 5 -25 10 0 6 -13 10 -30 10 -16 0 -30 5 -30 10 0 6 -9 10 -19 10 -11 0 -23 5 -26 10 -3 6 -15 10 -26 10 -10 0 -19 7 -19 15 0 8 -9 15 -20 15 -11 0 -20 5 -20 10 0 6 -16 10 -35 10 -19 0 -35 5 -35 10 0 6 -9 10 -20 10 -11 0 -20 5 -20 10 0 6 -16 10 -35 10 -19 0 -35 5 -35 10 0 6 -13 10 -29 10 -16 0 -31 6 -35 15 -3 9 -18 15 -36 15 -16 0 -30 5 -30 10 0 6 -13 10 -30 10 -16 0 -30 5 -30 10 0 6 -16 10 -35 10 -19 0 -35 5 -35 10 0 6 -13 10 -29 10 -17 0 -33 5 -36 10 -3 6 -22 10 -41 10 -20 0 -43 7 -51 16 -11 11 -27 14 -50 11 -24 -4 -33 -2 -33 9 0 10 -14 14 -55 14 -30 0 -55 5 -55 10 0 6 -25 10 -55 10 -30 0 -55 5 -55 10 0 6 -28 10 -65 10 -37 0 -65 4 -65 10 0 6 -31 10 -74 10 -50 0 -76 4 -78 12 -7 19 -1031 19 -1049 1 -8 -8 -43 -13 -96 -13 -49 0 -83 -4 -83 -10 0 -6 -28 -10 -65 -10 -37 0 -65 -4 -65 -10 0 -5 -25 -10 -55 -10 -30 0 -55 -4 -55 -10 0 -5 -18 -10 -39 -10 -22 0 -43 -4 -46 -10 -3 -5 -21 -10 -39 -10 -19 0 -39 -7 -46 -15 -7 -9 -29 -15 -51 -15 -22 0 -39 -4 -39 -10 0 -5 -16 -10 -35 -10 -19 0 -35 -4 -35 -10 0 -5 -20 -10 -45 -10 -25 0 -45 -4 -45 -10 0 -5 -13 -10 -30 -10 -16 0 -30 -4 -30 -10 0 -5 -14 -10 -30 -10 -18 0 -33 -6 -36 -15 -4 -8 -15 -15 -25 -15 -10 0 -19 -4 -19 -10 0 -5 -16 -10 -35 -10 -19 0 -35 -4 -35 -10 0 -5 -13 -10 -30 -10 -16 0 -30 -4 -30 -10 0 -5 -9 -10 -20 -10 -11 0 -20 -4 -20 -10 0 -5 -11 -10 -25 -10 -16 0 -25 -6 -25 -15 0 -10 -10 -15 -30 -15 -16 0 -30 -4 -30 -10 0 -5 -11 -10 -25 -10 -14 0 -25 -4 -25 -10 0 -5 -9 -10 -20 -10 -11 0 -20 -4 -20 -10 0 -5 -9 -10 -20 -10 -11 0 -20 -4 -20 -10 0 -5 -11 -10 -25 -10 -14 0 -25 -4 -25 -10 0 -5 -9 -10 -20 -10 -11 0 -20 -7 -20 -15 0 -9 -9 -15 -25 -15 -14 0 -25 -4 -25 -10 0 -5 -8 -10 -18 -10 -10 0 -24 -9 -32 -20 -8 -11 -22 -20 -32 -20 -10 0 -18 -4 -18 -10 0 -5 -8 -10 -19 -10 -10 0 -27 -11 -37 -25 -10 -14 -27 -25 -36 -25 -10 0 -18 -4 -18 -10 0 -5 -10 -10 -23 -10 -12 0 -29 -9 -37 -20 -8 -11 -21 -20 -28 -20 -8 0 -23 -11 -34 -25 -11 -14 -27 -25 -37 -25 -9 0 -23 -9 -31 -20 -8 -11 -22 -20 -32 -20 -10 0 -18 -4 -18 -10 0 -5 -7 -10 -15 -10 -8 0 -15 -5 -15 -11 0 -14 -26 -39 -40 -39 -6 0 -21 -10 -34 -22 -42 -41 -66 -58 -81 -58 -8 0 -15 -5 -15 -10 0 -13 -45 -60 -57 -60 -5 0 -15 -9 -23 -20 -8 -11 -20 -20 -26 -20 -14 0 -424 -407 -424 -422 0 -5 -13 -23 -30 -38 -16 -15 -30 -31 -30 -35 0 -11 -28 -35 -40 -35 -7 0 -10 -8 -7 -20 3 -11 1 -20 -5 -20 -12 0 -38 -25 -38 -37 0 -5 -9 -15 -20 -23 -11 -8 -20 -21 -20 -30 0 -8 -11 -24 -25 -34 -14 -10 -25 -25 -25 -33 0 -8 -13 -28 -30 -43 -16 -15 -30 -34 -30 -40 0 -7 -11 -23 -25 -36 -14 -13 -25 -30 -25 -39 0 -8 -4 -15 -10 -15 -5 0 -10 -8 -10 -18 0 -10 -9 -24 -20 -32 -11 -8 -20 -25 -20 -37 0 -13 -4 -23 -10 -23 -5 0 -10 -8 -10 -18 0 -9 -11 -26 -25 -36 -14 -10 -25 -27 -25 -37 0 -11 -4 -19 -10 -19 -5 0 -10 -9 -10 -20 0 -11 -4 -20 -10 -20 -5 0 -10 -11 -10 -25 0 -14 -4 -25 -10 -25 -5 0 -10 -9 -10 -20 0 -11 -4 -20 -10 -20 -5 0 -10 -9 -10 -19 0 -10 -7 -21 -15 -25 -8 -3 -15 -15 -15 -26 0 -11 -4 -20 -10 -20 -5 0 -10 -9 -10 -20 0 -11 -4 -20 -10 -20 -5 0 -10 -9 -10 -20 0 -11 -4 -20 -10 -20 -5 0 -10 -11 -10 -25 0 -14 -4 -25 -10 -25 -5 0 -10 -9 -10 -19 0 -10 -7 -22 -16 -25 -11 -4 -15 -14 -11 -32 3 -16 -1 -28 -9 -31 -8 -3 -14 -14 -14 -24 0 -10 -4 -19 -10 -19 -5 0 -10 -16 -10 -36 0 -21 -4 -33 -10 -29 -6 4 -10 -8 -10 -29 0 -20 -4 -36 -10 -36 -5 0 -10 -9 -10 -19 0 -11 -4 -23 -10 -26 -5 -3 -10 -19 -10 -36 0 -19 -5 -29 -15 -29 -11 0 -15 -12 -15 -45 0 -25 -4 -45 -10 -45 -5 0 -10 -13 -10 -30 0 -16 -4 -30 -10 -30 -5 0 -10 -16 -10 -35 0 -19 -4 -35 -10 -35 -5 0 -10 -20 -10 -45 0 -25 -4 -45 -10 -45 -5 0 -10 -18 -10 -39 0 -25 -5 -41 -15 -45 -11 -4 -15 -20 -15 -56 0 -27 -4 -50 -10 -50 -5 0 -10 -25 -10 -55 0 -30 -4 -55 -10 -55 -6 0 -10 -34 -10 -81 0 -51 -4 -78 -10 -74 -6 4 -10 -27 -10 -84 0 -54 -4 -91 -10 -91 -6 0 -10 -61 -10 -164 0 -136 -3 -165 -15 -170 -12 -4 -15 -28 -15 -124 0 -94 3 -122 15 -132 12 -10 15 -43 15 -181 0 -106 4 -169 10 -169 6 0 10 -37 10 -90 0 -53 4 -90 10 -90 6 0 10 -28 10 -65 0 -37 4 -65 10 -65 6 0 10 -28 10 -65 0 -37 4 -65 10 -65 6 0 10 -18 10 -40 0 -27 5 -43 15 -46 11 -5 15 -21 15 -60 0 -30 5 -54 10 -54 6 0 10 -18 10 -40 0 -22 5 -40 10 -40 6 0 10 -20 10 -45 0 -25 5 -45 10 -45 6 0 10 -16 10 -35 0 -19 5 -35 10 -35 6 0 10 -18 10 -39 0 -25 5 -41 15 -45 9 -3 15 -18 15 -36 0 -16 5 -30 10 -30 6 0 10 -16 10 -35 0 -19 5 -35 10 -35 6 0 10 -18 10 -40 0 -22 5 -40 10 -40 6 0 10 -16 10 -35 0 -19 5 -35 10 -35 6 0 10 -18 10 -39 0 -22 5 -41 12 -43 8 -3 11 -20 9 -46 -2 -33 1 -42 13 -42 13 0 16 -12 16 -55 0 -30 5 -55 10 -55 6 0 10 -65 10 -175 0 -110 -4 -175 -10 -175 -5 0 -10 -18 -10 -39 0 -26 -5 -41 -16 -45 -9 -4 -14 -13 -10 -21 3 -9 -1 -18 -9 -21 -8 -4 -15 -15 -15 -25 0 -10 -4 -19 -10 -19 -5 0 -10 -9 -10 -20 0 -11 -4 -20 -10 -20 -5 0 -10 -9 -10 -20 0 -21 -61 -90 -80 -90 -5 0 -10 -7 -10 -16 0 -8 -4 -12 -10 -9 -5 3 -10 1 -10 -5 0 -19 -68 -80 -90 -80 -11 0 -20 -4 -20 -10 0 -5 -8 -10 -18 -10 -10 0 -25 -11 -32 -25 -10 -19 -21 -25 -47 -25 -18 0 -33 -4 -33 -10 0 -5 -13 -10 -30 -10 -16 0 -30 -4 -30 -10 0 -5 -20 -10 -45 -10 -25 0 -45 -4 -45 -10 0 -6 -38 -10 -95 -10 -57 0 -95 4 -95 10 0 6 -20 10 -45 10 -25 0 -45 5 -45 10 0 6 -13 10 -29 10 -17 0 -33 5 -36 10 -3 6 -15 10 -26 10 -11 0 -19 7 -19 16 0 11 -6 15 -20 11 -11 -3 -20 -1 -20 5 0 15 -27 38 -45 38 -17 0 -112 90 -107 102 1 5 -3 8 -8 8 -17 0 -80 68 -80 85 0 16 -23 45 -35 45 -12 0 -35 29 -35 44 0 9 -4 16 -10 16 -5 0 -10 7 -10 15 0 8 -4 15 -10 15 -5 0 -10 8 -10 18 0 10 -9 24 -20 32 -11 8 -20 20 -20 28 0 7 -11 23 -25 36 -14 13 -25 31 -25 40 0 9 -4 16 -10 16 -5 0 -10 9 -10 20 0 11 -4 20 -10 20 -5 0 -10 10 -10 23 0 12 -9 29 -20 37 -11 8 -20 22 -20 32 0 10 -7 18 -15 18 -9 0 -15 9 -15 25 0 14 -4 25 -10 25 -5 0 -10 9 -10 20 0 11 -4 20 -10 20 -5 0 -10 9 -10 20 0 11 -4 20 -10 20 -5 0 -10 11 -10 25 0 14 -4 25 -10 25 -5 0 -10 9 -10 20 0 12 -7 20 -16 20 -10 0 -14 6 -11 14 3 8 -1 20 -9 26 -8 7 -14 21 -14 31 0 11 -4 19 -10 19 -5 0 -10 9 -10 20 0 11 -4 20 -10 20 -5 0 -10 11 -10 25 0 16 -6 25 -16 25 -8 0 -12 5 -9 10 3 6 0 10 -8 10 -10 0 -13 7 -10 20 4 14 0 20 -11 20 -9 0 -16 8 -16 19 0 11 -4 23 -10 26 -5 3 -10 15 -10 26 0 10 -4 19 -10 19 -5 0 -10 9 -10 20 0 11 -4 20 -10 20 -5 0 -10 12 -10 26 0 14 -4 23 -10 19 -6 -4 -10 5 -10 19 0 17 -5 26 -16 26 -10 0 -14 5 -10 15 3 9 -1 18 -9 21 -8 4 -15 17 -15 30 0 13 -4 24 -10 24 -5 0 -10 9 -10 20 0 11 -4 20 -10 20 -5 0 -10 9 -10 20 0 11 -4 20 -10 20 -5 0 -10 11 -10 25 0 14 -4 25 -10 25 -5 0 -10 9 -10 20 0 11 -7 20 -15 20 -8 0 -15 9 -15 19 0 11 -4 23 -10 26 -5 3 -10 15 -10 26 0 10 -4 19 -10 19 -5 0 -10 9 -10 20 0 11 -4 20 -10 20 -5 0 -10 11 -10 25 0 14 -4 25 -10 25 -5 0 -10 9 -10 20 0 11 -7 20 -15 20 -8 0 -15 9 -15 20 0 11 -4 20 -10 20 -5 0 -10 11 -10 25 0 14 -4 25 -10 25 -5 0 -10 9 -10 20 0 11 -4 20 -10 20 -5 0 -10 9 -10 20 0 11 -4 20 -10 20 -5 0 -10 11 -10 25 0 15 -6 25 -14 25 -9 0 -12 7 -9 20 4 14 0 20 -11 20 -10 0 -16 9 -16 25 0 14 -4 25 -10 25 -5 0 -10 9 -10 20 0 11 -4 20 -10 20 -5 0 -10 9 -10 20 0 11 -4 20 -10 20 -5 0 -10 11 -10 25 0 14 -4 25 -10 25 -5 0 -10 9 -10 20 0 11 -7 20 -15 20 -8 0 -15 9 -15 20 0 11 -4 20 -10 20 -5 0 -10 11 -10 25 0 14 -4 25 -10 25 -5 0 -10 9 -10 20 0 11 -4 20 -10 20 -5 0 -10 9 -10 20 0 11 -4 20 -10 20 -5 0 -10 11 -10 25 0 14 -4 25 -10 25 -5 0 -10 7 -10 15 0 9 -7 18 -15 21 -8 4 -15 17 -15 30 0 13 -4 24 -10 24 -5 0 -10 9 -10 20 0 11 -4 20 -10 20 -5 0 -10 9 -10 20 0 11 -4 20 -10 20 -5 0 -10 11 -10 25 0 14 -4 25 -10 25 -5 0 -10 9 -10 20 0 11 -7 20 -15 20 -8 0 -15 9 -15 20 0 11 -4 20 -10 20 -5 0 -10 11 -10 25 0 14 -4 25 -10 25 -5 0 -10 9 -10 20 0 11 -4 20 -10 20 -5 0 -10 11 -10 25 0 14 -4 25 -10 25 -5 0 -10 9 -10 20 0 11 -4 20 -10 20 -5 0 -10 7 -10 15 0 9 -7 18 -15 21 -8 4 -15 17 -15 30 0 13 -4 24 -10 24 -5 0 -10 9 -10 20 0 11 -4 20 -10 20 -5 0 -10 9 -10 20 0 11 -4 20 -10 20 -5 0 -10 11 -10 25 0 15 -6 25 -14 25 -9 0 -12 7 -9 20 4 14 0 20 -11 20 -9 0 -16 8 -16 19 0 11 -4 23 -10 26 -5 3 -10 15 -10 26 0 10 -4 19 -10 19 -5 0 -10 9 -10 20 0 11 -4 20 -10 20 -5 0 -10 11 -10 25 0 14 -4 25 -10 25 -5 0 -10 9 -10 20 0 12 -7 20 -16 20 -10 0 -14 5 -10 15 3 9 -1 18 -9 21 -8 4 -15 17 -15 30 0 13 -4 24 -10 24 -5 0 -10 9 -10 20 0 11 -4 20 -10 20 -5 0 -10 9 -10 20 0 11 -4 20 -10 20 -5 0 -10 11 -10 25 0 14 -4 25 -10 25 -5 0 -10 9 -10 20 0 11 -7 20 -15 20 -8 0 -15 9 -15 19 0 11 -4 23 -10 26 -5 3 -10 15 -10 26 0 10 -4 19 -10 19 -5 0 -10 9 -10 20 0 11 -4 20 -10 20 -5 0 -10 12 -10 26 0 14 -4 23 -10 19 -6 -4 -10 5 -10 19 0 17 -5 26 -16 26 -10 0 -14 5 -10 15 3 9 -1 18 -9 21 -8 4 -15 17 -15 30 0 13 -4 24 -10 24 -5 0 -10 9 -10 20 0 11 -4 20 -10 20 -5 0 -10 7 -10 16 0 9 -11 25 -25 35 -14 12 -22 26 -19 34 4 8 -1 18 -10 21 -9 3 -16 15 -16 25 0 10 -4 19 -10 19 -5 0 -10 11 -10 25 0 14 -4 25 -10 25 -5 0 -10 9 -10 20 0 11 -4 20 -10 20 -5 0 -10 9 -10 20 0 11 -4 20 -10 20 -5 0 -10 9 -10 20 0 11 -7 23 -15 26 -8 4 -15 14 -15 23 0 9 -9 23 -20 31 -11 8 -20 25 -20 37 0 13 -4 23 -10 23 -5 0 -10 9 -10 20 0 11 -4 20 -10 20 -5 0 -10 9 -10 20 0 11 -4 20 -10 20 -5 0 -10 8 -10 19 0 10 -11 27 -25 37 -14 10 -25 27 -25 36 0 10 -4 18 -10 18 -5 0 -10 10 -10 23 0 12 -9 29 -20 37 -11 8 -20 22 -20 31 0 9 -7 19 -15 23 -8 3 -15 14 -15 23 0 10 -9 25 -20 33 -11 8 -20 22 -20 32 0 10 -4 18 -10 18 -5 0 -10 9 -10 21 0 22 -22 49 -39 49 -6 0 -8 6 -5 13 3 8 -7 22 -21 33 -14 10 -25 28 -25 39 0 11 -9 27 -20 35 -11 8 -20 20 -20 27 0 6 -16 27 -35 46 -19 19 -35 40 -35 48 0 8 -9 21 -20 29 -11 8 -20 20 -20 27 0 8 -16 29 -35 47 -19 19 -35 40 -35 48 0 7 -9 20 -20 28 -11 8 -20 19 -20 25 0 6 -9 17 -20 25 -11 8 -20 22 -20 32 0 10 -5 18 -11 18 -11 0 -39 25 -39 35 0 8 -47 55 -55 55 -13 0 -36 30 -31 39 8 12 -331 351 -351 351 -14 0 -43 23 -43 35 0 9 -48 55 -57 55 -5 0 -17 11 -27 25 -11 14 -25 24 -33 21 -7 -3 -13 1 -13 10 0 8 -4 12 -10 9 -5 -3 -10 1 -10 9 0 9 -7 16 -16 16 -8 0 -12 5 -9 10 3 6 -4 10 -17 10 -14 0 -35 14 -53 35 -16 19 -36 35 -43 35 -8 0 -27 14 -42 30 -15 17 -34 30 -40 30 -7 0 -23 12 -36 26 -13 14 -28 23 -33 19 -5 -3 -18 6 -29 20 -11 14 -30 25 -42 25 -11 0 -18 5 -15 10 3 6 -4 10 -17 10 -13 0 -30 9 -38 20 -8 11 -22 20 -31 20 -9 0 -19 7 -23 15 -3 8 -14 15 -23 15 -10 0 -25 9 -33 20 -8 11 -22 20 -32 20 -10 0 -18 5 -18 10 0 6 -11 10 -25 10 -14 0 -25 5 -25 10 0 6 -9 10 -20 10 -11 0 -20 4 -20 9 0 11 -56 41 -77 41 -7 0 -13 5 -13 10 0 6 -9 10 -20 10 -11 0 -20 5 -20 10 0 6 -9 10 -20 10 -11 0 -20 5 -20 10 0 6 -11 10 -25 10 -14 0 -25 5 -25 10 0 6 -13 10 -29 10 -16 0 -31 6 -35 15 -3 8 -15 15 -26 15 -11 0 -20 5 -20 10 0 6 -9 10 -20 10 -11 0 -20 5 -20 10 0 6 -16 10 -35 10 -19 0 -35 5 -35 10 0 6 -13 10 -30 10 -16 0 -30 5 -30 10 0 6 -9 10 -20 10 -10 0 -23 7 -28 16 -6 12 -18 15 -36 12 -18 -4 -26 -1 -26 8 0 9 -12 14 -35 14 -19 0 -35 5 -35 10 0 6 -18 10 -40 10 -22 0 -40 5 -40 10 0 6 -16 10 -35 10 -19 0 -35 5 -35 10 0 6 -20 10 -44 10 -31 0 -46 5 -50 16 -4 11 -16 15 -43 12 -22 -2 -38 2 -41 10 -2 7 -21 12 -43 12 -21 0 -39 5 -39 10 0 6 -25 10 -55 10 -30 0 -55 5 -55 10 0 6 -28 10 -65 10 -37 0 -65 4 -65 10 0 6 -36 10 -89 10 -50 0 -91 4 -93 10 -3 11 -639 20 -875 13z m12062 -3523 c133 -41 222 -95 320 -194 100 -101 154 -191 196 -326 20 -62 24 -97 23 -200 0 -71 -6 -144 -13 -170 -44 -155 -114 -272 -219 -372 -88 -83 -165 -129 -283 -170 -88 -30 -103 -32 -229 -32 -127 0 -141 2 -232 33 -120 41 -223 107 -310 199 -83 88 -129 165 -170 283 -30 88 -32 103 -32 229 0 126 2 141 33 230 90 263 297 447 571 506 91 19 255 12 345 -16z m-11462 -27 c145 -51 271 -142 356 -257 49 -66 1676 -3259 1702 -3339 112 -345 -47 -733 -366 -894 -108 -55 -184 -75 -311 -80 -151 -7 -236 10 -361 71 -105 52 -189 118 -258 205 -40 49 -238 430 -882 1694 -511 1004 -838 1657 -849 1697 -26 89 -26 298 0 390 59 214 224 405 424 491 107 47 179 59 322 56 120 -3 144 -7 223 -34z m9862 -8357 c150 -40 311 -148 401 -270 39 -52 787 -1506 1629 -3166 91 -180 105 -226 112 -366 11 -214 -55 -398 -197 -548 -206 -218 -503 -296 -782 -205 -126 42 -231 111 -326 214 -72 79 -22 -16 -1005 1915 -529 1039 -731 1445 -747 1500 -71 258 -1 529 185 721 105 108 217 172 364 210 91 23 270 20 366 -5z m-9874 -3216 c115 -38 192 -85 281 -168 92 -87 158 -190 199 -310 31 -91 33 -105 33 -232 0 -126 -2 -141 -33 -230 -82 -241 -263 -414 -511 -491 -108 -34 -292 -34 -400 0 -132 41 -226 96 -321 191 -99 97 -147 175 -192 305 -28 82 -31 101 -31 220 -1 143 16 220 75 339 83 167 236 303 411 367 109 40 165 49 289 44 86 -3 125 -10 200 -35z"
		/>
	</g>
	<style>
		g {
			fill: #a0a0a0;
			stroke-width: 500;
		}
	</style>
</svg>
